<mxfile host="app.diagrams.net" agent="Mozilla/5.0 (Windows NT 10.0; Win64; x64) AppleWebKit/537.36 (KHTML, like Gecko) Chrome/129.0.0.0 Safari/537.36" version="24.7.17">
  <diagram id="Ht1M8jgEwFfnCIfOTk4-" name="Page-1">
    <mxGraphModel dx="2219" dy="1821" grid="1" gridSize="10" guides="1" tooltips="1" connect="1" arrows="1" fold="1" page="1" pageScale="1" pageWidth="1169" pageHeight="827" math="0" shadow="0">
      <root>
        <mxCell id="0" />
        <mxCell id="1" parent="0" />
        <mxCell id="UEzPUAAOIrF-is8g5C7q-74" value="AWS Cloud" style="points=[[0,0],[0.25,0],[0.5,0],[0.75,0],[1,0],[1,0.25],[1,0.5],[1,0.75],[1,1],[0.75,1],[0.5,1],[0.25,1],[0,1],[0,0.75],[0,0.5],[0,0.25]];outlineConnect=0;gradientColor=none;html=1;whiteSpace=wrap;fontSize=12;fontStyle=0;shape=mxgraph.aws4.group;grIcon=mxgraph.aws4.group_aws_cloud_alt;strokeColor=#232F3E;fillColor=none;verticalAlign=top;align=left;spacingLeft=30;fontColor=#232F3E;dashed=0;labelBackgroundColor=#ffffff;container=1;pointerEvents=0;collapsible=0;recursiveResize=0;" parent="1" vertex="1">
          <mxGeometry x="40" y="80" width="240" height="360" as="geometry" />
        </mxCell>
        <mxCell id="uB7k3Oiw6261H7XUzbiV-6" value="" style="sketch=0;points=[[0,0,0],[0.25,0,0],[0.5,0,0],[0.75,0,0],[1,0,0],[0,1,0],[0.25,1,0],[0.5,1,0],[0.75,1,0],[1,1,0],[0,0.25,0],[0,0.5,0],[0,0.75,0],[1,0.25,0],[1,0.5,0],[1,0.75,0]];outlineConnect=0;fontColor=#232F3E;fillColor=#ED7100;strokeColor=#ffffff;dashed=0;verticalLabelPosition=bottom;verticalAlign=top;align=center;html=1;fontSize=12;fontStyle=0;aspect=fixed;shape=mxgraph.aws4.resourceIcon;resIcon=mxgraph.aws4.app_runner;" vertex="1" parent="UEzPUAAOIrF-is8g5C7q-74">
          <mxGeometry x="81" y="200" width="78" height="78" as="geometry" />
        </mxCell>
        <mxCell id="uB7k3Oiw6261H7XUzbiV-13" value="" style="sketch=0;points=[[0,0,0],[0.25,0,0],[0.5,0,0],[0.75,0,0],[1,0,0],[0,1,0],[0.25,1,0],[0.5,1,0],[0.75,1,0],[1,1,0],[0,0.25,0],[0,0.5,0],[0,0.75,0],[1,0.25,0],[1,0.5,0],[1,0.75,0]];outlineConnect=0;fontColor=#232F3E;fillColor=#ED7100;strokeColor=#ffffff;dashed=0;verticalLabelPosition=bottom;verticalAlign=top;align=center;html=1;fontSize=12;fontStyle=0;aspect=fixed;shape=mxgraph.aws4.resourceIcon;resIcon=mxgraph.aws4.ecr;" vertex="1" parent="UEzPUAAOIrF-is8g5C7q-74">
          <mxGeometry x="81" y="80" width="78" height="78" as="geometry" />
        </mxCell>
        <mxCell id="uB7k3Oiw6261H7XUzbiV-18" value="&lt;font style=&quot;font-size: 20px;&quot;&gt;&lt;b&gt;ECR&lt;/b&gt;&lt;/font&gt;" style="text;html=1;align=center;verticalAlign=middle;whiteSpace=wrap;rounded=0;fontSize=16;" vertex="1" parent="UEzPUAAOIrF-is8g5C7q-74">
          <mxGeometry x="170" y="104" width="60" height="30" as="geometry" />
        </mxCell>
        <mxCell id="uB7k3Oiw6261H7XUzbiV-20" value="&lt;font style=&quot;font-size: 20px;&quot;&gt;&lt;b&gt;App Runner&lt;/b&gt;&lt;/font&gt;" style="text;html=1;align=center;verticalAlign=middle;whiteSpace=wrap;rounded=0;fontSize=16;" vertex="1" parent="UEzPUAAOIrF-is8g5C7q-74">
          <mxGeometry x="60" y="290" width="120" height="30" as="geometry" />
        </mxCell>
        <mxCell id="uB7k3Oiw6261H7XUzbiV-26" value="" style="edgeStyle=orthogonalEdgeStyle;html=1;endArrow=block;elbow=vertical;startArrow=none;endFill=1;strokeColor=#545B64;rounded=0;fontSize=12;startSize=8;endSize=8;curved=0;entryX=0.5;entryY=0;entryDx=0;entryDy=0;exitX=0.5;exitY=1;exitDx=0;exitDy=0;exitPerimeter=0;entryPerimeter=0;" edge="1" parent="UEzPUAAOIrF-is8g5C7q-74" source="uB7k3Oiw6261H7XUzbiV-13" target="uB7k3Oiw6261H7XUzbiV-6">
          <mxGeometry width="100" relative="1" as="geometry">
            <mxPoint x="424" y="200" as="sourcePoint" />
            <mxPoint x="270" y="350" as="targetPoint" />
            <Array as="points">
              <mxPoint x="120" y="200" />
            </Array>
          </mxGeometry>
        </mxCell>
        <mxCell id="uB7k3Oiw6261H7XUzbiV-11" value="" style="image;html=1;image=img/lib/clip_art/networking/Cloud_Server_128x128.png" vertex="1" parent="1">
          <mxGeometry x="-80" y="220" width="80" height="80" as="geometry" />
        </mxCell>
        <mxCell id="uB7k3Oiw6261H7XUzbiV-12" value="" style="sketch=0;outlineConnect=0;fontColor=#232F3E;gradientColor=none;fillColor=#232F3D;strokeColor=none;dashed=0;verticalLabelPosition=bottom;verticalAlign=top;align=center;html=1;fontSize=12;fontStyle=0;aspect=fixed;pointerEvents=1;shape=mxgraph.aws4.user;" vertex="1" parent="1">
          <mxGeometry x="-240" y="221" width="78" height="78" as="geometry" />
        </mxCell>
        <mxCell id="uB7k3Oiw6261H7XUzbiV-14" value="" style="image;html=1;image=img/lib/clip_art/networking/Cloud_Server_128x128.png" vertex="1" parent="1">
          <mxGeometry x="-80" y="80" width="80" height="80" as="geometry" />
        </mxCell>
        <mxCell id="uB7k3Oiw6261H7XUzbiV-15" value="&lt;font style=&quot;font-size: 20px;&quot;&gt;&lt;b&gt;Cloudflare&lt;/b&gt;&lt;/font&gt;" style="text;html=1;align=center;verticalAlign=middle;whiteSpace=wrap;rounded=0;fontSize=16;" vertex="1" parent="1">
          <mxGeometry x="-70" y="290" width="60" height="30" as="geometry" />
        </mxCell>
        <mxCell id="uB7k3Oiw6261H7XUzbiV-16" value="&lt;font style=&quot;font-size: 20px;&quot;&gt;&lt;b&gt;User&lt;/b&gt;&lt;/font&gt;" style="text;html=1;align=center;verticalAlign=middle;whiteSpace=wrap;rounded=0;fontSize=16;" vertex="1" parent="1">
          <mxGeometry x="-231" y="310" width="60" height="30" as="geometry" />
        </mxCell>
        <mxCell id="uB7k3Oiw6261H7XUzbiV-17" value="&lt;font style=&quot;font-size: 20px;&quot;&gt;&lt;b&gt;お名前.com&lt;/b&gt;&lt;/font&gt;" style="text;html=1;align=center;verticalAlign=middle;whiteSpace=wrap;rounded=0;fontSize=16;" vertex="1" parent="1">
          <mxGeometry x="-95" y="60" width="110" height="30" as="geometry" />
        </mxCell>
        <mxCell id="uB7k3Oiw6261H7XUzbiV-21" value="" style="sketch=0;outlineConnect=0;fontColor=#232F3E;gradientColor=none;fillColor=#232F3D;strokeColor=none;dashed=0;verticalLabelPosition=bottom;verticalAlign=top;align=center;html=1;fontSize=12;fontStyle=0;aspect=fixed;pointerEvents=1;shape=mxgraph.aws4.user;" vertex="1" parent="1">
          <mxGeometry x="310" y="-30" width="78" height="78" as="geometry" />
        </mxCell>
        <mxCell id="uB7k3Oiw6261H7XUzbiV-22" value="&lt;font style=&quot;font-size: 20px;&quot;&gt;&lt;b&gt;Deleloper&lt;/b&gt;&lt;/font&gt;" style="text;html=1;align=center;verticalAlign=middle;whiteSpace=wrap;rounded=0;fontSize=16;" vertex="1" parent="1">
          <mxGeometry x="319" y="60" width="60" height="30" as="geometry" />
        </mxCell>
        <mxCell id="uB7k3Oiw6261H7XUzbiV-25" value="" style="edgeStyle=orthogonalEdgeStyle;html=1;endArrow=block;elbow=vertical;startArrow=none;endFill=1;strokeColor=#545B64;rounded=0;fontSize=12;startSize=8;endSize=8;curved=0;entryX=0.5;entryY=0;entryDx=0;entryDy=0;entryPerimeter=0;" edge="1" parent="1" source="uB7k3Oiw6261H7XUzbiV-21" target="uB7k3Oiw6261H7XUzbiV-13">
          <mxGeometry width="100" relative="1" as="geometry">
            <mxPoint x="140" y="330" as="sourcePoint" />
            <mxPoint x="240" y="330" as="targetPoint" />
            <Array as="points">
              <mxPoint x="160" y="10" />
            </Array>
          </mxGeometry>
        </mxCell>
        <mxCell id="uB7k3Oiw6261H7XUzbiV-28" value="" style="edgeStyle=orthogonalEdgeStyle;html=1;endArrow=block;elbow=vertical;startArrow=block;startFill=1;endFill=1;strokeColor=#545B64;rounded=0;fontSize=12;startSize=8;endSize=8;exitX=1;exitY=0.5;exitDx=0;exitDy=0;entryX=0;entryY=0.5;entryDx=0;entryDy=0;entryPerimeter=0;" edge="1" parent="1" source="uB7k3Oiw6261H7XUzbiV-11" target="uB7k3Oiw6261H7XUzbiV-6">
          <mxGeometry width="100" relative="1" as="geometry">
            <mxPoint x="-20" y="390" as="sourcePoint" />
            <mxPoint x="80" y="390" as="targetPoint" />
            <Array as="points">
              <mxPoint x="80" y="260" />
              <mxPoint x="80" y="319" />
            </Array>
          </mxGeometry>
        </mxCell>
        <mxCell id="uB7k3Oiw6261H7XUzbiV-30" value="" style="edgeStyle=orthogonalEdgeStyle;html=1;endArrow=block;elbow=vertical;startArrow=block;startFill=1;endFill=1;strokeColor=#545B64;rounded=0;fontSize=12;startSize=8;endSize=8;curved=1;exitX=0.5;exitY=1;exitDx=0;exitDy=0;" edge="1" parent="1" source="uB7k3Oiw6261H7XUzbiV-14">
          <mxGeometry width="100" relative="1" as="geometry">
            <mxPoint x="-90" y="330" as="sourcePoint" />
            <mxPoint x="-40" y="220" as="targetPoint" />
          </mxGeometry>
        </mxCell>
        <mxCell id="uB7k3Oiw6261H7XUzbiV-31" value="" style="edgeStyle=orthogonalEdgeStyle;html=1;endArrow=block;elbow=vertical;startArrow=block;startFill=1;endFill=1;strokeColor=#545B64;rounded=0;fontSize=12;startSize=8;endSize=8;curved=1;entryX=0;entryY=0.5;entryDx=0;entryDy=0;" edge="1" parent="1" source="uB7k3Oiw6261H7XUzbiV-12" target="uB7k3Oiw6261H7XUzbiV-11">
          <mxGeometry width="100" relative="1" as="geometry">
            <mxPoint x="-90" y="330" as="sourcePoint" />
            <mxPoint x="10" y="330" as="targetPoint" />
          </mxGeometry>
        </mxCell>
        <mxCell id="uB7k3Oiw6261H7XUzbiV-32" value="" style="edgeStyle=orthogonalEdgeStyle;html=1;endArrow=block;elbow=vertical;startArrow=block;startFill=1;endFill=1;strokeColor=#545B64;rounded=0;fontSize=12;startSize=8;endSize=8;exitX=1;exitY=0.5;exitDx=0;exitDy=0;entryX=0;entryY=0.5;entryDx=0;entryDy=0;entryPerimeter=0;" edge="1" parent="1" source="uB7k3Oiw6261H7XUzbiV-14" target="uB7k3Oiw6261H7XUzbiV-6">
          <mxGeometry width="100" relative="1" as="geometry">
            <mxPoint x="-30" y="280" as="sourcePoint" />
            <mxPoint x="120" y="330" as="targetPoint" />
            <Array as="points">
              <mxPoint x="80" y="120" />
              <mxPoint x="80" y="319" />
            </Array>
          </mxGeometry>
        </mxCell>
      </root>
    </mxGraphModel>
  </diagram>
</mxfile>
